# Blender 4.4.1
# www.blender.org
mtllib 3d printer.mtl
o Сборка
v 115.000000 0.000000 -70.000000
v 85.000000 0.000000 -43.000000
v 115.000000 0.000000 70.000000
v 85.000000 0.000000 43.000000
v -115.000000 0.000000 70.000000
v 66.000000 0.000000 43.000000
v -85.000000 0.000000 43.000000
v -115.000000 0.000000 -70.000000
v -85.000000 0.000000 -43.000000
v -66.000000 0.000000 -43.000000
v 66.000000 0.000000 -43.000000
v 61.000000 0.000000 -43.000000
v 61.000000 0.000000 43.000000
v -61.000000 0.000000 -43.000000
v -61.000000 0.000000 43.000000
v -66.000000 0.000000 43.000000
v 85.000000 -43.000000 -43.000000
v 66.000000 -43.000000 -43.000000
v 66.000000 -43.000000 43.000000
v 85.000000 -43.000000 43.000000
v -61.000000 -43.000000 43.000000
v 61.000000 -43.000000 43.000000
v 61.000000 -43.000000 -43.000000
v -61.000000 -43.000000 -43.000000
v -85.000000 -43.000000 43.000000
v -66.000000 -43.000000 43.000000
v -66.000000 -43.000000 -43.000000
v -85.000000 -43.000000 -43.000000
v 66.000000 0.000000 -43.000000
v 61.000000 0.000000 -43.000000
v 66.000000 0.000000 -43.000000
v -115.000000 -5.000000 -70.000000
v -115.000000 -5.000000 70.000000
v 115.000000 -5.000000 70.000000
v 115.000000 -5.000000 -70.000000
v -89.000000 -5.000000 56.000000
v -61.000000 -5.000000 56.000000
v 89.000000 -5.000000 56.000000
v 89.000000 -5.000000 -56.000000
v 61.000000 -5.000000 -56.000000
v -89.000000 -5.000000 -56.000000
v -61.000000 -5.000000 -56.000000
v -61.000000 -5.000000 -43.500000
v 61.000000 -5.000000 -43.500000
v 61.000000 -5.000000 56.000000
v 61.000000 -5.000000 43.500000
v -61.000000 -5.000000 43.500000
v 61.000000 -53.000000 43.500000
v -61.000000 -53.000000 43.500000
v 61.000000 -55.000000 56.000000
v 61.000000 -55.000000 -56.000000
v 61.000000 -53.000000 -43.500000
v 89.000000 -55.000000 56.000000
v 89.000000 -55.000000 -56.000000
v -61.000000 -53.000000 -43.500000
v -61.000000 -55.000000 56.000000
v -61.000000 -55.000000 -56.000000
v -89.000000 -55.000000 -56.000000
v -89.000000 -55.000000 56.000000
v -63.000000 58.000000 -43.000000
v -64.492012 58.000000 -41.500000
v -84.000000 58.000000 -43.000000
v -82.492020 58.000000 -41.500000
v -84.000000 58.000000 43.000000
v -82.492020 58.000000 41.500000
v -63.000000 58.000000 43.000000
v -64.492012 58.000000 41.500000
v -64.492012 78.000000 -41.500000
v -64.492012 78.000000 41.500000
v -82.492020 78.000000 -41.500000
v -82.492020 78.000000 41.500000
v -84.000000 116.000000 43.000000
v -39.000000 73.000000 43.000000
v -39.000000 116.000000 43.000000
v -84.000000 116.000000 -43.000000
v -39.000000 73.000000 -43.000000
v -39.000000 116.000000 -43.000000
v 42.170319 77.601700 0.946941
v 42.170319 77.768669 -0.000000
v 42.170319 77.120926 1.779668
v 42.170319 77.601700 -0.946941
v 42.170319 76.384338 2.397740
v 42.170319 77.120926 -1.779668
v 42.170319 75.480774 2.726609
v 42.170319 76.384338 -2.397740
v 42.170319 74.519226 2.726609
v 42.170319 75.480774 -2.726609
v 42.170319 73.615662 2.397740
v 42.170319 74.519226 -2.726609
v 42.170319 72.879074 1.779668
v 42.170319 73.615662 -2.397740
v 42.170319 72.398300 0.946941
v 42.170319 72.879074 -1.779668
v 42.170319 72.231331 0.000000
v 42.170319 72.398300 -0.946941
v 59.065315 81.916809 -0.000000
v 59.065315 81.499680 -2.365689
v 59.065315 80.298584 -4.446040
v 59.065315 78.458405 -5.990134
v 59.065315 76.201088 -6.811729
v 59.065315 73.798912 -6.811729
v 59.065315 71.541595 -5.990134
v 59.065315 69.701416 -4.446040
v 59.065315 68.500320 -2.365689
v 59.065315 68.083191 0.000000
v 42.170319 72.231331 0.000000
v 59.065315 68.500320 2.365689
v 59.065315 69.701416 4.446040
v 59.065315 71.541595 5.990134
v 59.065315 73.798912 6.811729
v 59.065315 76.201088 6.811729
v 59.065315 78.458405 5.990134
v 59.065315 80.298584 4.446040
v 59.065315 81.499680 2.365689
v 59.065315 81.916809 0.000000
v 42.170319 77.768669 0.000000
v 85.065315 81.916809 -0.000000
v 85.065315 81.499680 -2.365689
v 85.065315 80.298584 -4.446040
v 85.065315 78.458405 -5.990134
v 85.065315 76.201088 -6.811729
v 85.065315 73.798912 -6.811729
v 85.065315 71.541595 -5.990134
v 85.065315 69.701416 -4.446040
v 85.065315 68.500320 -2.365689
v 85.065315 68.083191 0.000000
v 59.065315 68.083191 0.000000
v 85.065315 68.500320 2.365689
v 85.065315 69.701416 4.446040
v 85.065315 71.541595 5.990134
v 85.065315 73.798912 6.811729
v 85.065315 76.201088 6.811729
v 85.065315 78.458405 5.990134
v 85.065315 80.298584 4.446040
v 85.065315 81.499680 2.365689
v 85.065315 81.916809 0.000000
vn -0.0000 1.0000 -0.0000
vn -0.0000 -0.0000 -1.0000
vn -0.0000 -0.0000 1.0000
vn -1.0000 -0.0000 -0.0000
vn 1.0000 -0.0000 -0.0000
vn -0.0000 -1.0000 -0.0000
vn 0.5300 -0.8480 -0.0000
vn -0.2350 0.9572 -0.1688
vn -0.2350 0.8418 -0.4860
vn -0.2350 0.6248 -0.7446
vn -0.2350 0.3324 -0.9134
vn -0.2350 -0.0000 -0.9720
vn -0.2350 -0.3324 -0.9134
vn -0.2350 -0.6248 -0.7446
vn -0.2350 -0.8418 -0.4860
vn -0.2350 -0.9572 -0.1688
vn -0.2350 -0.9572 0.1688
vn -0.2350 -0.8418 0.4860
vn -0.2350 -0.6248 0.7446
vn -0.2350 -0.3324 0.9134
vn -0.2350 -0.0000 0.9720
vn -0.2350 0.3324 0.9134
vn -0.2350 0.6248 0.7446
vn -0.2350 0.8418 0.4860
vn -0.2350 0.9572 0.1688
vn -0.0000 0.9848 -0.1736
vn -0.0000 0.8660 -0.5000
vn -0.0000 0.6428 -0.7660
vn -0.0000 0.3420 -0.9397
vn -0.0000 -0.3420 -0.9397
vn -0.0000 -0.6428 -0.7660
vn -0.0000 -0.8660 -0.5000
vn -0.0000 -0.9848 -0.1736
vn -0.0000 -0.9848 0.1736
vn -0.0000 -0.8660 0.5000
vn -0.0000 -0.6428 0.7660
vn -0.0000 -0.3420 0.9397
vn -0.0000 0.3420 0.9397
vn -0.0000 0.6428 0.7660
vn -0.0000 0.8660 0.5000
vn -0.0000 0.9848 0.1736
s 0
f 1//1 2//1 3//1
f 2//1 4//1 3//1
f 3//1 4//1 5//1
f 4//1 6//1 5//1
f 5//1 7//1 8//1
f 7//1 9//1 8//1
f 8//1 9//1 1//1
f 9//1 10//1 1//1
f 1//1 11//1 2//1
f 1//1 12//1 11//1
f 12//1 13//1 11//1
f 11//1 13//1 6//1
f 1//1 10//1 14//1
f 14//1 10//1 15//1
f 10//1 16//1 15//1
f 7//1 5//1 16//1
f 5//1 15//1 16//1
f 12//1 1//1 14//1
f 13//1 5//1 6//1
f 15//1 5//1 13//1
f 17//1 18//1 19//1
f 17//1 19//1 20//1
f 21//1 22//1 23//1
f 21//1 23//1 24//1
f 25//1 26//1 27//1
f 25//1 27//1 28//1
f 20//2 19//2 6//2
f 4//2 20//2 6//2
f 15//2 13//2 22//2
f 21//2 15//2 22//2
f 7//2 16//2 26//2
f 25//2 7//2 26//2
f 2//3 29//3 18//3
f 17//3 2//3 18//3
f 24//3 23//3 30//3
f 14//3 24//3 30//3
f 28//3 27//3 10//3
f 9//3 28//3 10//3
f 16//4 10//4 27//4
f 16//4 27//4 26//4
f 21//5 24//5 14//5
f 21//5 14//5 15//5
f 13//4 30//4 23//4
f 13//4 23//4 22//4
f 19//5 18//5 31//5
f 19//5 31//5 6//5
f 8//4 32//4 33//4
f 8//4 33//4 5//4
f 5//3 33//3 34//3
f 5//3 34//3 3//3
f 3//5 34//5 35//5
f 3//5 35//5 1//5
f 1//2 35//2 32//2
f 1//2 32//2 8//2
f 28//5 9//5 7//5
f 25//5 28//5 7//5
f 20//4 4//4 2//4
f 17//4 20//4 2//4
f 33//6 36//6 34//6
f 36//6 37//6 34//6
f 34//6 38//6 35//6
f 38//6 39//6 35//6
f 35//6 39//6 32//6
f 39//6 40//6 32//6
f 32//6 41//6 33//6
f 41//6 36//6 33//6
f 41//6 32//6 42//6
f 32//6 40//6 42//6
f 42//6 40//6 43//6
f 40//6 44//6 43//6
f 38//6 34//6 45//6
f 34//6 37//6 45//6
f 45//6 37//6 46//6
f 37//6 47//6 46//6
f 48//3 46//3 47//3
f 48//3 47//3 49//3
f 45//4 46//4 50//4
f 46//4 48//4 50//4
f 50//4 48//4 51//4
f 48//4 52//4 51//4
f 51//4 52//4 40//4
f 52//4 44//4 40//4
f 38//3 45//3 50//3
f 38//3 50//3 53//3
f 54//5 39//5 38//5
f 54//5 38//5 53//5
f 51//2 40//2 39//2
f 51//2 39//2 54//2
f 55//2 43//2 44//2
f 55//2 44//2 52//2
f 47//5 37//5 49//5
f 37//5 56//5 49//5
f 49//5 56//5 55//5
f 56//5 57//5 55//5
f 55//5 57//5 43//5
f 57//5 42//5 43//5
f 58//2 41//2 42//2
f 58//2 42//2 57//2
f 59//4 36//4 41//4
f 59//4 41//4 58//4
f 56//3 37//3 36//3
f 56//3 36//3 59//3
f 49//6 55//6 52//6
f 49//6 52//6 48//6
f 53//6 50//6 51//6
f 54//6 53//6 51//6
f 56//6 59//6 58//6
f 57//6 56//6 58//6
f 60//6 61//6 62//6
f 61//6 63//6 62//6
f 62//6 63//6 64//6
f 63//6 65//6 64//6
f 64//6 65//6 66//6
f 65//6 67//6 66//6
f 66//6 67//6 60//6
f 67//6 61//6 60//6
f 68//4 61//4 67//4
f 69//4 68//4 67//4
f 70//3 63//3 61//3
f 68//3 70//3 61//3
f 71//5 65//5 63//5
f 70//5 71//5 63//5
f 69//2 67//2 65//2
f 71//2 69//2 65//2
f 64//3 66//3 72//3
f 66//3 73//3 72//3
f 72//3 73//3 74//3
f 62//4 64//4 72//4
f 62//4 72//4 75//4
f 76//2 60//2 77//2
f 60//2 62//2 77//2
f 77//2 62//2 75//2
f 76//7 73//7 66//7
f 76//7 66//7 60//7
f 68//6 69//6 71//6
f 68//6 71//6 70//6
f 77//5 74//5 73//5
f 77//5 73//5 76//5
f 75//1 72//1 74//1
f 75//1 74//1 77//1
f 78//4 79//4 80//4
f 79//4 81//4 80//4
f 80//4 81//4 82//4
f 81//4 83//4 82//4
f 82//4 83//4 84//4
f 83//4 85//4 84//4
f 84//4 85//4 86//4
f 85//4 87//4 86//4
f 86//4 87//4 88//4
f 87//4 89//4 88//4
f 88//4 89//4 90//4
f 89//4 91//4 90//4
f 90//4 91//4 92//4
f 91//4 93//4 92//4
f 92//4 93//4 94//4
f 93//4 95//4 94//4
f 96//8 97//8 81//8
f 96//8 81//8 79//8
f 97//9 98//9 83//9
f 97//9 83//9 81//9
f 98//10 99//10 85//10
f 98//10 85//10 83//10
f 99//11 100//11 87//11
f 99//11 87//11 85//11
f 100//12 101//12 89//12
f 100//12 89//12 87//12
f 101//13 102//13 91//13
f 101//13 91//13 89//13
f 102//14 103//14 93//14
f 102//14 93//14 91//14
f 103//15 104//15 95//15
f 103//15 95//15 93//15
f 104//16 105//16 106//16
f 104//16 106//16 95//16
f 105//17 107//17 92//17
f 105//17 92//17 106//17
f 107//18 108//18 90//18
f 107//18 90//18 92//18
f 108//19 109//19 88//19
f 108//19 88//19 90//19
f 109//20 110//20 86//20
f 109//20 86//20 88//20
f 110//21 111//21 84//21
f 110//21 84//21 86//21
f 111//22 112//22 82//22
f 111//22 82//22 84//22
f 112//23 113//23 80//23
f 112//23 80//23 82//23
f 113//24 114//24 78//24
f 113//24 78//24 80//24
f 114//25 115//25 116//25
f 114//25 116//25 78//25
f 117//26 118//26 97//26
f 117//26 97//26 96//26
f 118//27 119//27 98//27
f 118//27 98//27 97//27
f 119//28 120//28 99//28
f 119//28 99//28 98//28
f 120//29 121//29 100//29
f 120//29 100//29 99//29
f 121//2 122//2 101//2
f 121//2 101//2 100//2
f 122//30 123//30 102//30
f 122//30 102//30 101//30
f 123//31 124//31 103//31
f 123//31 103//31 102//31
f 124//32 125//32 104//32
f 124//32 104//32 103//32
f 125//33 126//33 127//33
f 125//33 127//33 104//33
f 126//34 128//34 107//34
f 126//34 107//34 127//34
f 128//35 129//35 108//35
f 128//35 108//35 107//35
f 129//36 130//36 109//36
f 129//36 109//36 108//36
f 130//37 131//37 110//37
f 130//37 110//37 109//37
f 131//3 132//3 111//3
f 131//3 111//3 110//3
f 132//38 133//38 112//38
f 132//38 112//38 111//38
f 133//39 134//39 113//39
f 133//39 113//39 112//39
f 134//40 135//40 114//40
f 134//40 114//40 113//40
f 135//41 136//41 115//41
f 135//41 115//41 114//41
f 118//5 117//5 119//5
f 117//5 135//5 119//5
f 119//5 135//5 120//5
f 135//5 134//5 120//5
f 120//5 134//5 121//5
f 134//5 133//5 121//5
f 121//5 133//5 122//5
f 133//5 132//5 122//5
f 122//5 132//5 123//5
f 132//5 131//5 123//5
f 123//5 131//5 124//5
f 131//5 130//5 124//5
f 124//5 130//5 125//5
f 130//5 129//5 125//5
f 125//5 129//5 126//5
f 129//5 128//5 126//5
